HIERARCHY
ROOT Hips
{
	OFFSET 0.000000 83.214638 0.000000
	CHANNELS 6 Xposition Yposition Zposition Xrotation Yrotation Zrotation
	JOINT Pelvis
	{
		OFFSET 0.000000 0.000000 0.000000
		CHANNELS 3 Xrotation Yrotation Zrotation
		JOINT LeftUpLeg
		{
			OFFSET 8.479700 -4.795502 -0.379100
			CHANNELS 3 Xrotation Yrotation Zrotation
			JOINT LeftLeg
			{
				OFFSET 0.024144 -32.555107 0.112900
				CHANNELS 3 Xrotation Yrotation Zrotation
				JOINT LeftFoot
				{
					OFFSET -0.024144 -32.638630 -3.012600
					CHANNELS 3 Xrotation Yrotation Zrotation
					JOINT LeftToeBase
					{
						OFFSET 0.970200 -13.225400 11.864200
						CHANNELS 3 Xrotation Yrotation Zrotation
						End Site
						{
							OFFSET 0.000000 12.319262 0.000000
						}
					}
					JOINT LFootTongue
					{
						OFFSET 1.142400 -1.059800 6.665200
						CHANNELS 3 Xrotation Yrotation Zrotation
						End Site
						{
							OFFSET 0.000000 12.319262 0.000000
						}
					}
				}
				JOINT LeftPantLeg
				{
					OFFSET 0.918482 -16.533964 -2.284700
					CHANNELS 3 Xrotation Yrotation Zrotation
					End Site
					{
						OFFSET 0.350399 24.744368 0.000000
					}
				}
			}
		}
		JOINT RightUpLeg
		{
			OFFSET -8.479700 -4.795502 -0.379100
			CHANNELS 3 Xrotation Yrotation Zrotation
			JOINT RightLeg
			{
				OFFSET -0.023144 -32.555092 0.112900
				CHANNELS 3 Xrotation Yrotation Zrotation
				JOINT RightFoot
				{
					OFFSET 0.023144 -32.638641 -3.012700
					CHANNELS 3 Xrotation Yrotation Zrotation
					JOINT RightToeBase
					{
						OFFSET -0.970200 -13.225400 11.864200
						CHANNELS 3 Xrotation Yrotation Zrotation
						End Site
						{
							OFFSET 0.000000 12.319244 0.000000
						}
					}
					JOINT RFootTongue
					{
						OFFSET -1.142200 -1.059800 6.665200
						CHANNELS 3 Xrotation Yrotation Zrotation
						End Site
						{
							OFFSET 0.000000 12.319243 0.000000
						}
					}
				}
				JOINT RightPantLeg
				{
					OFFSET -0.919482 -16.533978 -2.284800
					CHANNELS 3 Xrotation Yrotation Zrotation
					End Site
					{
						OFFSET -0.350400 24.744419 0.000000
					}
				}
			}
		}
	}
	JOINT Spine
	{
		OFFSET 0.000000 7.722000 1.166200
		CHANNELS 3 Xrotation Yrotation Zrotation
		JOINT Spine1
		{
			OFFSET 0.000000 12.024101 0.248800
			CHANNELS 3 Xrotation Yrotation Zrotation
			JOINT Spine2
			{
				OFFSET 0.000000 11.502998 -0.491200
				CHANNELS 3 Xrotation Yrotation Zrotation
				JOINT Neck
				{
					OFFSET 0.000000 18.430702 -3.123100
					CHANNELS 3 Xrotation Yrotation Zrotation
					JOINT Head
					{
						OFFSET 0.000000 9.051102 1.034000
						CHANNELS 3 Xrotation Yrotation Zrotation
						JOINT HairB
						{
							OFFSET 0.208400 24.786102 24.822300
							CHANNELS 3 Xrotation Yrotation Zrotation
							End Site
							{
								OFFSET 0.000000 32.263779 0.000000
							}
						}
						JOINT HairA
						{
							OFFSET -7.081100 24.428299 23.196600
							CHANNELS 3 Xrotation Yrotation Zrotation
							End Site
							{
								OFFSET 0.000000 32.263779 0.000000
							}
						}
						JOINT Hat
						{
							OFFSET 16.728800 15.048294 -15.439601
							CHANNELS 3 Xrotation Yrotation Zrotation
							End Site
							{
								OFFSET 0.000000 32.263779 0.000000
							}
						}
					}
				}
				JOINT LeftShoulder
				{
					OFFSET 6.197800 13.665199 -4.064700
					CHANNELS 3 Xrotation Yrotation Zrotation
					JOINT LeftArm
					{
						OFFSET 7.778100 -0.187103 -1.709300
						CHANNELS 3 Xrotation Yrotation Zrotation
						JOINT LeftForeArm
						{
							OFFSET 22.049376 0.000000 0.000000
							CHANNELS 3 Xrotation Yrotation Zrotation
							JOINT LeftHand
							{
								OFFSET 23.009392 0.000000 0.000000
								CHANNELS 3 Xrotation Yrotation Zrotation
								JOINT LeftHandThumb1
								{
									OFFSET 3.507191 -2.063065 3.133727
									CHANNELS 3 Xrotation Yrotation Zrotation
									JOINT LeftHandThumb2
									{
										OFFSET 3.101337 -1.790558 1.790558
										CHANNELS 3 Xrotation Yrotation Zrotation
										JOINT LeftHandThumb3
										{
											OFFSET 3.058640 -1.765907 1.765906
											CHANNELS 3 Xrotation Yrotation Zrotation
											End Site
											{
												OFFSET -0.415260 3.926476 -0.049563
											}
										}
									}
								}
								JOINT LeftHandIndex1
								{
									OFFSET 11.334419 -0.901459 3.706815
									CHANNELS 3 Xrotation Yrotation Zrotation
									JOINT LeftHandIndex2
									{
										OFFSET 3.283112 0.000000 0.000000
										CHANNELS 3 Xrotation Yrotation Zrotation
										JOINT LeftHandIndex3
										{
											OFFSET 3.323853 0.000000 0.000000
											CHANNELS 3 Xrotation Yrotation Zrotation
											End Site
											{
												OFFSET -1.135597 3.097809 0.402452
											}
										}
									}
								}
								JOINT LeftHandMiddle1
								{
									OFFSET 11.335861 0.000000 0.000000
									CHANNELS 3 Xrotation Yrotation Zrotation
									JOINT LeftHandMiddle2
									{
										OFFSET 3.410492 0.000000 0.000000
										CHANNELS 3 Xrotation Yrotation Zrotation
										JOINT LeftHandMiddle3
										{
											OFFSET 3.312172 0.000000 0.000000
											CHANNELS 3 Xrotation Yrotation Zrotation
											End Site
											{
												OFFSET -1.150200 3.080154 0.400270
											}
										}
									}
								}
								JOINT LeftHandRing1
								{
									OFFSET 11.514786 -0.013176 -3.003090
									CHANNELS 3 Xrotation Yrotation Zrotation
									JOINT LeftHandRing2
									{
										OFFSET 3.053307 0.000000 0.000000
										CHANNELS 3 Xrotation Yrotation Zrotation
										JOINT LeftHandRing3
										{
											OFFSET 3.295807 0.000000 0.000000
											CHANNELS 3 Xrotation Yrotation Zrotation
											End Site
											{
												OFFSET -1.281006 3.013344 0.375733
											}
										}
									}
								}
								JOINT LeftHandPinky1
								{
									OFFSET 10.518692 -0.960396 -5.730441
									CHANNELS 3 Xrotation Yrotation Zrotation
									JOINT LeftHandPinky2
									{
										OFFSET 2.861649 0.000000 0.000000
										CHANNELS 3 Xrotation Yrotation Zrotation
										JOINT LeftHandPinky3
										{
											OFFSET 2.863380 0.000000 0.000000
											CHANNELS 3 Xrotation Yrotation Zrotation
											End Site
											{
												OFFSET -0.843597 2.711159 0.369971
											}
										}
									}
								}
							}
							JOINT LSleeve
							{
								OFFSET 6.676277 -0.344902 -1.011730
								CHANNELS 3 Xrotation Yrotation Zrotation
								End Site
								{
									OFFSET 0.000000 14.885353 0.000000
								}
							}
						}
					}
				}
				JOINT RightShoulder
				{
					OFFSET -6.197800 13.665199 -4.064700
					CHANNELS 3 Xrotation Yrotation Zrotation
					JOINT RightArm
					{
						OFFSET -7.778100 -0.187103 -1.709300
						CHANNELS 3 Xrotation Yrotation Zrotation
						JOINT RightForeArm
						{
							OFFSET -22.049376 0.000000 0.000000
							CHANNELS 3 Xrotation Yrotation Zrotation
							JOINT RightHand
							{
								OFFSET -23.009392 0.000000 0.000000
								CHANNELS 3 Xrotation Yrotation Zrotation
								JOINT RightHandThumb1
								{
									OFFSET -3.507191 -2.063065 3.133727
									CHANNELS 3 Xrotation Yrotation Zrotation
									JOINT RightHandThumb2
									{
										OFFSET -3.101337 -1.790558 1.790558
										CHANNELS 3 Xrotation Yrotation Zrotation
										JOINT RightHandThumb3
										{
											OFFSET -3.058640 -1.765907 1.765906
											CHANNELS 3 Xrotation Yrotation Zrotation
											End Site
											{
												OFFSET 0.415260 3.926476 -0.049563
											}
										}
									}
								}
								JOINT RightHandIndex1
								{
									OFFSET -11.334419 -0.901459 3.706815
									CHANNELS 3 Xrotation Yrotation Zrotation
									JOINT RightHandIndex2
									{
										OFFSET -3.283112 0.000000 0.000000
										CHANNELS 3 Xrotation Yrotation Zrotation
										JOINT RightHandIndex3
										{
											OFFSET -3.323853 0.000000 0.000000
											CHANNELS 3 Xrotation Yrotation Zrotation
											End Site
											{
												OFFSET 1.135597 3.097809 0.402452
											}
										}
									}
								}
								JOINT RightHandMiddle1
								{
									OFFSET -11.335861 0.000000 0.000000
									CHANNELS 3 Xrotation Yrotation Zrotation
									JOINT RightHandMiddle2
									{
										OFFSET -3.410492 0.000000 0.000000
										CHANNELS 3 Xrotation Yrotation Zrotation
										JOINT RightHandMiddle3
										{
											OFFSET -3.312172 0.000000 0.000000
											CHANNELS 3 Xrotation Yrotation Zrotation
											End Site
											{
												OFFSET 1.150200 3.080154 0.400270
											}
										}
									}
								}
								JOINT RightHandRing1
								{
									OFFSET -11.514786 -0.013176 -3.003090
									CHANNELS 3 Xrotation Yrotation Zrotation
									JOINT RightHandRing2
									{
										OFFSET -3.053307 0.000000 0.000000
										CHANNELS 3 Xrotation Yrotation Zrotation
										JOINT RightHandRing3
										{
											OFFSET -3.295807 0.000000 0.000000
											CHANNELS 3 Xrotation Yrotation Zrotation
											End Site
											{
												OFFSET 1.281006 3.013344 0.375733
											}
										}
									}
								}
								JOINT RightHandPinky1
								{
									OFFSET -10.518692 -0.960396 -5.730441
									CHANNELS 3 Xrotation Yrotation Zrotation
									JOINT RightHandPinky2
									{
										OFFSET -2.861649 0.000000 0.000000
										CHANNELS 3 Xrotation Yrotation Zrotation
										JOINT RightHandPinky3
										{
											OFFSET -2.863380 0.000000 0.000000
											CHANNELS 3 Xrotation Yrotation Zrotation
											End Site
											{
												OFFSET 0.843597 2.711159 0.369971
											}
										}
									}
								}
							}
							JOINT RSleeve
							{
								OFFSET -6.676277 -0.344902 -1.011730
								CHANNELS 3 Xrotation Yrotation Zrotation
								End Site
								{
									OFFSET 0.000000 14.885353 0.000000
								}
							}
						}
					}
				}
				JOINT Backpack
				{
					OFFSET 0.000000 -2.471497 36.677502
					CHANNELS 3 Xrotation Yrotation Zrotation
					End Site
					{
						OFFSET 0.000000 20.427315 0.000000
					}
				}
				JOINT Hood
				{
					OFFSET 0.000000 18.754097 -10.431000
					CHANNELS 3 Xrotation Yrotation Zrotation
					JOINT Hood1
					{
						OFFSET 0.000000 -5.011002 -7.685901
						CHANNELS 3 Xrotation Yrotation Zrotation
						End Site
						{
							OFFSET 0.000000 9.175140 0.000000
						}
					}
				}
				JOINT LHoodieString
				{
					OFFSET 5.250500 16.397697 3.089900
					CHANNELS 3 Xrotation Yrotation Zrotation
					JOINT LHoodieString1
					{
						OFFSET 0.257700 -6.364304 3.694600
						CHANNELS 3 Xrotation Yrotation Zrotation
						JOINT LHoodieString2
						{
							OFFSET 0.000000 -9.643799 2.679100
							CHANNELS 3 Xrotation Yrotation Zrotation
							End Site
							{
								OFFSET 0.000000 10.009018 0.000000
							}
						}
					}
				}
				JOINT RHoodieString
				{
					OFFSET -5.250500 16.397697 3.089900
					CHANNELS 3 Xrotation Yrotation Zrotation
					JOINT RHoodieString1
					{
						OFFSET -0.257700 -6.364304 3.694600
						CHANNELS 3 Xrotation Yrotation Zrotation
						JOINT RHoodieString2
						{
							OFFSET 0.000000 -9.643799 2.679100
							CHANNELS 3 Xrotation Yrotation Zrotation
							End Site
							{
								OFFSET 0.000000 10.009018 0.000000
							}
						}
					}
				}
			}
			JOINT LBackpack_Strap
			{
				OFFSET 15.223200 -7.719803 -6.610900
				CHANNELS 3 Xrotation Yrotation Zrotation
				End Site
				{
					OFFSET 0.000000 16.040596 0.000000
				}
			}
			JOINT RBackpack_Strap
			{
				OFFSET -15.223000 -7.719803 -6.610900
				CHANNELS 3 Xrotation Yrotation Zrotation
				End Site
				{
					OFFSET 0.000000 16.040596 0.000000
				}
			}
		}
	}
	JOINT BoyFacialAnim_Joint
	{
		OFFSET 1.000000 -82.208099 -1.550900
		CHANNELS 3 Xrotation Yrotation Zrotation
		End Site
		{
			OFFSET 0.000000 30.012791 0.000000
		}
	}
}
MOTION
Frames: 5
Frame Time: 0.033333
15.633652 49.560585 7.115156 69.111051 247.129467 -124.927876 -0.000001 0.000000 -0.000000 -50.927683 20.591627 33.120909 103.435429 -9.596681 -1.069001 -16.402566 -29.675775 -3.483378 -0.000001 -0.000001 0.000003 -0.000001 -0.000001 0.000002 -0.000001 -0.000000 0.000001 -8.051230 1.156179 -21.643345 94.791237 -10.013628 -9.001715 7.488023 -30.196007 -9.616517 0.000000 0.000000 -0.000001 0.000000 0.000000 -0.000001 0.000001 0.000002 -0.000001 29.537618 -2.723725 3.944320 -0.730047 -1.415686 4.408968 -0.687448 -1.127845 4.535617 2.072268 2.665130 -3.847933 -23.168890 10.062020 -4.760090 0.000001 0.000000 0.000000 0.000001 0.000000 0.000000 0.000001 0.000000 0.000000 1.485549 -13.705908 3.838174 -76.075467 8.817558 -29.057940 0.000002 -119.367186 0.000000 -32.771343 -0.215017 18.524656 -21.668164 -8.408022 11.372427 6.926620 17.737904 1.853884 -0.000001 -0.000002 0.000000 -4.115424 -11.869719 -16.554015 0.313989 1.893914 -18.824985 -0.000002 -0.000003 0.000005 -1.378721 -2.485578 -14.801276 0.247023 1.684814 -16.680125 0.000002 0.000000 -0.000001 1.407136 8.567728 -13.454924 0.177907 1.434302 -14.142445 -0.000000 0.000001 -0.000000 2.878100 19.682501 -8.754881 0.206995 1.545066 -15.260475 -0.000000 0.000000 -0.000000 -0.000001 0.000003 -0.000001 -1.867173 21.995612 26.867172 -70.279990 -0.543560 43.337578 0.000014 130.713920 -0.000021 15.438741 7.531191 -69.487940 -7.726476 20.222418 -17.825385 6.023601 -13.595652 1.473854 0.000002 0.000001 0.000001 1.867966 14.097837 -5.870187 0.303814 -1.656130 20.788719 -0.000002 -0.000003 0.000005 0.835454 2.007945 -11.533037 0.318575 -1.694502 21.293818 -0.000001 0.000003 0.000002 -0.380132 -4.165179 -10.608361 0.532966 -2.165246 27.653607 -0.000004 -0.000002 -0.000002 -1.468287 -11.255815 -9.656020 0.107461 -0.995688 12.318593 -0.000000 -0.000001 -0.000002 0.000002 0.000000 -0.000000 -0.000003 -0.000000 0.000000 -0.000003 -0.000000 0.000000 -0.000003 -0.000000 0.000000 -0.000003 -0.000000 0.000000 -0.000003 -0.000000 0.000000 0.000000 0.000000 -0.000000 -0.000003 -0.000000 0.000000 -0.000003 -0.000000 0.000000 0.000000 0.000000 -0.000000 0.000001 -0.000000 0.000000 0.000001 -0.000000 0.000000 -0.000001 0.000000 -0.000000 
15.805191 49.587608 2.987610 117.797117 245.974045 -88.616083 -0.000000 0.000000 -0.000001 -36.768227 22.245591 33.795158 89.255095 -9.811440 -3.769778 -25.656275 -29.946172 -14.613123 -0.000003 0.000000 -0.000000 -0.000003 0.000000 -0.000000 -0.000000 0.000000 -0.000000 -16.237197 8.218907 -28.367944 86.573420 -10.127986 -9.837923 -0.135366 -30.293337 -19.046047 0.000000 -0.000001 -0.000001 0.000000 -0.000001 -0.000001 0.000001 0.000001 -0.000000 27.834117 -4.599137 12.165177 -0.413216 -2.649475 4.861889 -0.377776 -2.343791 5.061964 2.115614 3.740180 -4.426915 -21.612134 12.888536 -0.273302 -0.000001 0.000000 -0.000000 -0.000001 0.000000 -0.000000 -0.000001 0.000000 -0.000000 2.061119 -18.379629 4.773268 -69.995861 7.207070 -28.434387 0.000031 -117.135723 0.000028 -16.323394 22.705596 29.538488 -21.355777 -6.561831 12.124714 7.344006 18.737418 2.501341 0.000002 0.000002 0.000001 -4.795771 -11.676688 -19.046076 0.326801 1.931016 -19.208425 -0.000005 0.000006 -0.000003 -1.605841 -2.331267 -17.069143 0.258804 1.723632 -17.076429 0.000002 -0.000004 -0.000002 1.658338 8.708297 -15.849073 0.194894 1.500007 -14.805046 0.000000 -0.000001 0.000001 3.692279 19.960893 -11.353680 0.229874 1.626505 -16.086680 0.000001 -0.000001 0.000001 -0.000001 -0.000001 -0.000001 -1.730249 18.147838 30.017671 -78.683110 2.498148 51.706503 -0.000016 127.500958 0.000034 22.795565 7.766082 -65.766491 -7.369548 20.542598 -18.382773 5.913289 -13.372175 1.263062 0.000000 0.000001 0.000000 1.859866 14.659570 -5.602774 0.266527 -1.554419 19.457945 -0.000001 -0.000000 0.000002 0.915880 2.540160 -11.096749 0.266705 -1.554930 19.464596 0.000001 0.000001 -0.000005 -0.336801 -3.965031 -10.460738 0.448026 -1.994877 25.313700 0.000000 0.000001 0.000004 -1.502210 -11.467164 -9.665020 0.087976 -0.901903 11.142281 0.000003 -0.000001 -0.000001 -0.000000 -0.000001 0.000000 0.000000 0.000000 -0.000001 0.000000 0.000000 -0.000001 0.000000 0.000000 -0.000001 0.000000 0.000000 -0.000001 0.000000 0.000000 -0.000000 0.000000 0.000000 0.000000 0.000000 0.000000 -0.000001 0.000000 0.000000 -0.000000 0.000000 0.000000 0.000000 0.000001 -0.000003 0.000000 0.000001 -0.000003 0.000000 -0.000000 0.000000 -0.000001 
14.012241 50.275917 -0.517448 149.675960 235.108772 -71.429210 0.000001 0.000000 -0.000002 -23.688761 21.938498 29.442470 66.005357 -10.110699 -8.059024 -26.485947 -30.444667 -19.691867 0.000001 -0.000003 -0.000002 0.000001 -0.000003 -0.000003 -0.000000 0.000000 -0.000000 -23.920726 8.495278 -31.855538 65.188302 -10.110336 -10.074381 -3.170211 -30.072657 -21.657338 -0.000000 -0.000000 0.000000 -0.000000 -0.000000 0.000000 -0.000003 -0.000000 0.000001 28.310492 -3.535548 21.976943 -0.059254 -3.410658 5.257564 -0.091200 -3.071180 5.505535 0.741984 4.566536 -4.851860 -19.258661 15.117393 2.703317 0.000001 0.000003 0.000001 0.000001 0.000003 0.000001 0.000001 0.000003 0.000001 2.178326 -19.271831 5.069293 -62.140399 0.743829 -36.084067 0.000004 -112.419026 0.000007 -3.803923 41.346533 43.416313 -21.170743 -5.264304 12.614563 7.541953 19.238749 3.065015 -0.000002 -0.000001 0.000004 -5.320182 -11.576021 -20.885667 0.322469 1.918565 -19.079584 -0.000002 0.000000 -0.000002 -1.779592 -2.249821 -18.693208 0.256975 1.717718 -17.016037 0.000002 -0.000001 0.000004 1.841945 8.800874 -17.584629 0.200815 1.522218 -15.029481 -0.000001 0.000001 0.000005 4.347460 20.191699 -13.371094 0.239968 1.661109 -16.438628 0.000001 0.000000 0.000001 -0.000002 0.000001 0.000003 -2.094480 19.963844 31.145000 -85.742479 9.308890 52.500447 0.000029 124.200051 -0.000014 33.458136 7.106224 -67.063257 -7.030461 20.840369 -18.911406 5.852300 -13.256595 0.982813 -0.000000 0.000001 -0.000001 1.830684 15.349472 -5.231852 0.224468 -1.429851 17.842768 -0.000003 -0.000000 0.000002 0.989127 3.173854 -10.434162 0.214454 -1.398367 17.437128 -0.000000 0.000001 0.000005 -0.280860 -3.746686 -10.059477 0.360774 -1.798964 22.678190 -0.000001 0.000003 0.000006 -1.507245 -11.752315 -9.451883 0.069540 -0.802690 9.903323 0.000001 0.000000 0.000002 -0.000001 0.000001 -0.000003 -0.000001 0.000002 -0.000000 -0.000001 0.000002 -0.000000 -0.000001 0.000002 -0.000000 -0.000001 0.000002 -0.000000 -0.000001 0.000002 0.000000 -0.000002 -0.000002 0.000003 -0.000001 0.000002 -0.000000 -0.000001 0.000002 0.000000 -0.000002 -0.000002 0.000003 -0.000000 0.000000 0.000004 -0.000000 0.000000 0.000004 0.000001 0.000000 -0.000002 
11.869831 50.747505 -1.242157 169.929410 220.829674 -68.822038 0.000000 0.000002 -0.000000 -15.188864 16.425485 21.760388 43.323852 -10.130309 -8.936890 -20.369854 -27.148368 -17.749920 -0.000000 -0.000000 -0.000000 -0.000000 -0.000000 -0.000000 -0.000000 0.000002 0.000001 -28.559070 6.068437 -30.414730 38.812970 -10.540240 -10.104380 -0.407969 -29.958091 -14.625708 0.000001 0.000001 -0.000000 0.000001 0.000001 -0.000000 0.000001 0.000001 0.000000 28.826441 -1.838972 27.973125 0.473052 -3.635425 5.955844 0.400161 -3.273506 6.212387 -0.308139 4.766546 -2.974573 -13.837712 17.320241 4.063772 -0.000001 -0.000002 0.000001 -0.000001 -0.000002 0.000001 -0.000001 -0.000002 0.000001 2.058747 -18.582749 4.466458 -56.890906 -5.829528 -44.240867 -0.000201 -103.237585 -0.000203 -4.800152 43.319737 47.374571 -21.110706 -4.648217 12.809288 7.483608 19.140360 3.519383 0.000002 0.000000 -0.000001 -5.657208 -11.612051 -21.935566 0.298643 1.848347 -18.355274 -0.000001 -0.000002 -0.000002 -1.890319 -2.265531 -19.532565 0.239459 1.659458 -16.421947 0.000002 0.000001 0.000004 1.939111 8.842728 -18.513837 0.192813 1.492139 -14.725570 0.000000 0.000000 -0.000004 4.784621 20.389679 -14.640406 0.233608 1.639482 -16.218672 0.000000 0.000000 0.000001 -0.000002 0.000003 -0.000001 -2.492213 21.062437 32.739692 -91.217600 19.697098 55.894822 0.000042 120.425388 -0.000008 43.920124 -18.560959 -75.246924 -6.711642 21.114743 -19.407465 5.833656 -13.232709 0.648933 -0.000003 0.000005 0.000002 1.777588 16.135053 -4.777774 0.181117 -1.287466 16.014724 -0.000001 -0.000003 0.000001 1.043762 3.883223 -9.592205 0.164878 -1.229496 15.275319 0.000003 0.000003 0.000000 -0.218821 -3.515991 -9.452748 0.276929 -1.583552 19.838093 -0.000002 0.000002 0.000001 -1.484416 -12.094677 -9.055713 0.052858 -0.700437 8.631282 0.000001 -0.000000 0.000000 -0.000001 -0.000001 -0.000003 -0.000001 -0.000000 0.000003 -0.000001 -0.000000 0.000003 -0.000001 -0.000000 0.000003 -0.000001 -0.000000 0.000003 -0.000001 -0.000000 0.000004 -0.000002 0.000000 0.000002 -0.000001 -0.000000 0.000003 -0.000001 -0.000000 0.000004 -0.000002 0.000000 0.000002 -0.000001 -0.000003 0.000001 -0.000001 -0.000003 0.000001 0.000000 0.000002 -0.000000 
11.076164 49.809929 1.143246 187.570313 207.482460 -70.506124 0.000001 0.000001 0.000000 -12.470851 6.851507 14.614301 29.325287 -6.134560 -7.371715 -11.487484 -19.908707 -11.886772 0.000001 -0.000001 -0.000000 0.000001 -0.000001 -0.000000 0.000001 0.000000 0.000001 -30.498909 5.842482 -24.695500 21.761044 -10.867044 -10.537224 3.055504 -29.961315 -4.205779 -0.000001 -0.000000 0.000002 -0.000001 -0.000000 0.000002 -0.000004 0.000001 -0.000000 28.198306 -1.327663 28.055408 1.361902 -3.337280 6.295050 1.296037 -3.025219 6.502371 0.131992 4.533067 -0.124083 -6.902185 19.468937 5.038003 0.000000 0.000003 -0.000002 0.000000 0.000003 -0.000002 0.000000 0.000003 -0.000002 1.743675 -16.206885 2.515157 -51.808136 -8.717377 -53.424650 0.031224 -92.944176 0.031115 -12.090997 44.110881 47.223098 -21.259988 -5.304846 12.516992 6.942358 17.861295 3.755818 -0.000000 -0.000001 -0.000000 -5.665909 -11.939794 -21.602862 0.235905 1.647272 -16.297832 -0.000001 0.000000 -0.000002 -1.888514 -2.476672 -18.971200 0.189587 1.479798 -14.600964 0.000001 0.000003 0.000002 1.879274 8.800785 -18.003161 0.155166 1.340808 -13.202930 -0.000001 0.000001 -0.000002 4.794257 20.580538 -14.498215 0.191265 1.486187 -14.665463 0.000001 0.000001 0.000002 -0.000000 -0.000001 0.000000 -2.550641 20.363700 32.876057 -86.159790 18.116071 59.716207 0.000001 117.844792 0.000000 42.793898 -27.762988 -80.204657 -6.415556 21.364852 -19.867041 5.850228 -13.284290 0.277452 0.000000 0.000002 0.000002 1.698867 16.983813 -4.260976 0.139532 -1.132609 14.045666 -0.000000 0.000001 0.000002 1.070426 4.641760 -8.617577 0.120410 -1.053289 13.043320 0.000002 0.000001 0.000002 -0.156535 -3.278992 -8.688668 0.201170 -1.355384 16.884313 -0.000001 -0.000002 0.000002 -1.434913 -12.477352 -8.515485 0.038411 -0.597544 7.355727 -0.000000 0.000001 0.000000 0.000001 -0.000001 -0.000002 -0.000000 -0.000000 0.000004 -0.000000 -0.000000 0.000004 -0.000000 -0.000000 0.000004 -0.000000 -0.000000 0.000004 -0.000000 -0.000000 0.000004 -0.000000 0.000000 0.000002 -0.000000 -0.000000 0.000004 -0.000000 -0.000000 0.000004 -0.000000 0.000000 0.000002 0.000000 -0.000000 -0.000001 0.000000 -0.000000 -0.000001 0.000001 0.000001 0.000000 
